<svg width="417" height="371" viewBox="0 0 417 371" fill="none" xmlns="http://www.w3.org/2000/svg">
<path d="M416 150C416 232.31 350.615 299 270 299C189.385 299 124 232.31 124 150C124 67.6904 189.385 1 270 1C350.615 1 416 67.6904 416 150Z" stroke="white" stroke-width="2"/>
<path d="M362 81.5C362 120.957 328.901 153 288 153C247.099 153 214 120.957 214 81.5C214 42.0433 247.099 10 288 10C328.901 10 362 42.0433 362 81.5Z" stroke="white" stroke-width="2"/>
<circle cx="363" cy="154" r="49" stroke="white" stroke-width="2"/>
<circle cx="71.5913" cy="349.591" r="19.5913" stroke="white" stroke-width="2"/>
<path d="M178 308.5C178 341.876 149.832 369 115 369C80.1681 369 52 341.876 52 308.5C52 275.124 80.1681 248 115 248C149.832 248 178 275.124 178 308.5Z" stroke="white" stroke-width="2"/>
<path d="M219 214.5C219 276.101 170.178 326 110 326C49.822 326 1 276.101 1 214.5C1 152.899 49.822 103 110 103C170.178 103 219 152.899 219 214.5Z" stroke="white" stroke-width="2"/>
</svg>
